<svg xmlns="http://www.w3.org/2000/svg" xmlns:xlink="http://www.w3.org/1999/xlink" width="500" zoomAndPan="magnify" viewBox="0 0 375 374.999991" height="500" preserveAspectRatio="xMidYMid meet" version="1.0"><defs><g/><clipPath id="e019bcd79c"><path d="M 177.652344 151 L 252.652344 151 L 252.652344 176 L 177.652344 176 Z M 177.652344 151 " clip-rule="nonzero"/></clipPath></defs><g fill="#fffcf7" fill-opacity="1"><g transform="translate(90.816847, 226.713472)"><g><path d="M 2.703125 0 C 1.703125 0 1.203125 -0.5 1.203125 -1.5 L 1.203125 -94.5 C 1.203125 -95.5 1.703125 -96 2.703125 -96 L 74.25 -96 C 75.25 -96 75.75 -95.5 75.75 -94.5 L 75.75 -60.59375 C 75.75 -59.59375 75.25 -59.09375 74.25 -59.09375 L 46.203125 -59.09375 L 46.203125 -57 L 74.25 -57 C 75.25 -57 75.75 -56.5 75.75 -55.5 L 75.75 -34.5 C 75.75 -33.601562 75.25 -33.15625 74.25 -33.15625 L 46.203125 -33.15625 L 46.203125 -1.5 C 46.203125 -0.5 45.703125 0 44.703125 0 Z M 2.703125 0 "/></g></g></g><g fill="#fffcf7" fill-opacity="1"><g transform="translate(167.766858, 226.713472)"><g><path d="M 77.09375 -96 C 78 -96 78.601562 -95.597656 78.90625 -94.796875 L 93.59375 -36 L 93.59375 -1.5 C 93.59375 -0.5 93.09375 0 92.09375 0 L 49.953125 0 C 48.953125 0 48.453125 -0.5 48.453125 -1.5 L 48.453125 -20.40625 L 46.34375 -20.40625 L 46.34375 -1.5 C 46.34375 -0.5 45.84375 0 44.84375 0 L 2.703125 0 C 1.703125 0 1.203125 -0.5 1.203125 -1.5 L 1.203125 -36 L 16.046875 -94.796875 C 16.347656 -95.597656 16.898438 -96 17.703125 -96 Z M 46.5 -69.59375 L 46.203125 -42 L 48.59375 -42 L 48.296875 -69.59375 Z M 46.5 -69.59375 "/></g></g></g><g fill="#fffcf7" fill-opacity="1"><g transform="translate(262.56687, 226.713472)"><g><path d="M 1.203125 -28.5 C 1.203125 -29.5 1.703125 -30 2.703125 -30 L 29.703125 -30 C 30.703125 -30 31.203125 -29.5 31.203125 -28.5 L 31.203125 -1.5 C 31.203125 -0.5 30.703125 0 29.703125 0 L 2.703125 0 C 1.703125 0 1.203125 -0.5 1.203125 -1.5 Z M 1.203125 -28.5 "/></g></g></g><g clip-path="url(#e019bcd79c)"><path fill="#004aad" d="M 178.179688 155.863281 C 178.710938 156.390625 181.34375 157.96875 181.871094 159.546875 C 182.398438 161.125 183.457031 171.226562 186.621094 173.859375 C 189.882812 176.570312 202.191406 175.558594 204.546875 174.386719 C 209.824219 171.757812 210.46875 163.265625 211.402344 159.546875 C 211.929688 157.441406 215.09375 157.441406 215.09375 157.441406 C 215.09375 157.441406 218.257812 157.441406 218.785156 159.542969 C 219.71875 163.265625 220.367188 171.78125 225.636719 174.40625 C 227.996094 175.585938 240.304688 176.59375 243.574219 173.882812 C 246.734375 171.25 247.789062 161.125 248.316406 159.542969 C 248.839844 157.964844 251.480469 156.386719 252.003906 155.859375 C 252.535156 155.335938 252.535156 153.230469 252.003906 152.699219 C 250.953125 151.648438 238.507812 150.710938 225.109375 152.175781 C 222.4375 152.46875 221.421875 153.226562 215.089844 153.226562 C 208.765625 153.226562 207.742188 152.464844 205.070312 152.175781 C 191.683594 150.714844 179.238281 151.652344 178.179688 152.703125 C 177.65625 153.230469 177.65625 155.335938 178.179688 155.863281 Z M 178.179688 155.863281 " fill-opacity="1" fill-rule="evenodd"/></g></svg>